<svg xmlns="http://www.w3.org/2000/svg" xmlns:xlink="http://www.w3.org/1999/xlink" version="1.1" width="256" height="256" viewBox="0 0 256 256" xml:space="preserve">

<defs>
</defs>
<g style="stroke: none; stroke-width: 0; stroke-dasharray: none; stroke-linecap: butt; stroke-linejoin: miter; stroke-miterlimit: 10; fill: none; fill-rule: nonzero; opacity: 1;" transform="translate(1.4065934065934016 1.4065934065934016) scale(2.81 2.81)" >
	<path d="M 83.576 87.253 C 56.503 104.918 -15.416 32.615 3.794 6.316 c 0.902 -1.235 2.258 -2.065 3.736 -2.454 l 13.988 -3.681 c 2.512 -0.661 5.144 0.53 6.306 2.853 l 7.475 14.949 c 0.798 1.595 0.77 3.479 -0.073 5.051 l -5.855 10.907 c -1.145 2.133 -0.757 4.765 0.955 6.477 l 19.56 19.56 c 1.671 1.671 4.223 2.085 6.336 1.028 l 11.313 -5.657 c 1.477 -0.738 3.208 -0.773 4.712 -0.094 l 13.946 6.294 c 2.295 1.036 3.591 3.497 3.144 5.974 c -1.016 5.635 -2.104 11.666 -2.725 15.112 C 86.271 84.525 85.183 86.205 83.576 87.253 z" style="stroke: none; stroke-width: 1; stroke-dasharray: none; stroke-linecap: butt; stroke-linejoin: miter; stroke-miterlimit: 10; fill: rgb(0,0,0); fill-rule: nonzero; opacity: 1;" transform=" matrix(1 0 0 1 0 0) " stroke-linecap="round" />
</g>
</svg>